<svg xmlns="http://www.w3.org/2000/svg" width="62.154" height="51.964" viewBox="0 0 62.154 51.964">
  <g id="_000000ff" data-name="#000000ff" transform="translate(0 -41.971)">
    <path id="Path_1871" data-name="Path 1871" d="M.483,42.237a2.6,2.6,0,0,1,1.585-.265q26.1.013,52.2.006A1.259,1.259,0,0,1,55.6,43.308q.016,7.948,0,15.9a6.44,6.44,0,0,1,6.549,6.135V76.388A6.436,6.436,0,0,1,55.6,82.531c0,3.357.007,6.714,0,10.071a1.251,1.251,0,0,1-.789,1.241,5.229,5.229,0,0,1-1.4.091q-26.045-.009-52.088,0A1.268,1.268,0,0,1,0,92.763V43.156a1.334,1.334,0,0,1,.483-.919M2.428,44.4v8.262q16.088,0,32.173,0a3.032,3.032,0,0,1,1.407.172,1.216,1.216,0,0,1,.475,1.594,1.308,1.308,0,0,1-1.278.662q-16.388,0-32.777,0V91.5h3.4c.008-2.836-.016-5.672.011-8.506a1.21,1.21,0,0,1,1.333-1.182,1.234,1.234,0,0,1,1.08,1.307c.008,2.793,0,5.588,0,8.381H53.178V82.521c-4.218.007-8.438-.016-12.654.011-.806.313-1.553.772-2.337,1.141q-3.635,1.83-7.269,3.665a1.227,1.227,0,0,1-1.632-.452,1.446,1.446,0,0,1-.093-1.1c.452-2.185.89-4.374,1.344-6.559a7.135,7.135,0,0,0,.055-1.318q0-5.763,0-11.529a6.93,6.93,0,0,1,.664-3.585A6.384,6.384,0,0,1,36.9,59.217c5.425-.01,10.85,0,16.277,0V55.094c-2.184,0-4.368,0-6.55,0a2.142,2.142,0,0,1-1.048-.176,1.2,1.2,0,0,1-.544-1.4,1.233,1.233,0,0,1,1.205-.846c2.311-.016,4.624,0,6.935-.007q0-4.13,0-8.261H2.428m30.993,19.46a6.071,6.071,0,0,0-.4,2.878V78.148a7.431,7.431,0,0,1-.057,1.324c-.313,1.528-.629,3.057-.937,4.588q3.715-1.865,7.422-3.745a4.534,4.534,0,0,1,2.072-.222H54.38a7.955,7.955,0,0,0,2.79-.259,3.938,3.938,0,0,0,2.487-3.006,8.567,8.567,0,0,0,.07-1.355c-.006-3.278,0-6.555,0-9.833a3.961,3.961,0,0,0-1.415-3.075,4.03,4.03,0,0,0-2.707-.924q-9.287,0-18.573,0A3.973,3.973,0,0,0,33.421,63.862Z" transform="translate(0 0)" fill="#fff"/>
    <path id="Path_1872" data-name="Path 1872" d="M267.278,87.3c4.675-.045,9.353,0,14.031-.021a1.562,1.562,0,0,1,1.258.405,1.206,1.206,0,0,1-.154,1.764,1.7,1.7,0,0,1-1.1.265c-4.612-.008-9.222,0-13.834-.006a1.237,1.237,0,0,1-1.3-.988A1.2,1.2,0,0,1,267.278,87.3Z" transform="translate(-233.847 -39.807)" fill="#fff"/>
    <path id="Path_1873" data-name="Path 1873" d="M54.97,87.482a1.2,1.2,0,1,1-.273,2.044A1.209,1.209,0,0,1,54.97,87.482Z" transform="translate(-47.663 -39.894)" fill="#fff"/>
    <path id="Path_1874" data-name="Path 1874" d="M102.917,87.484a1.2,1.2,0,1,1-.267,2.055A1.208,1.208,0,0,1,102.917,87.484Z" transform="translate(-89.785 -39.898)" fill="#fff"/>
    <path id="Path_1875" data-name="Path 1875" d="M150.8,87.531a1.2,1.2,0,1,1-.107,2.067A1.209,1.209,0,0,1,150.8,87.531Z" transform="translate(-131.931 -39.905)" fill="#fff"/>
    <path id="Path_1876" data-name="Path 1876" d="M326,130.206a1.2,1.2,0,1,1-.307,2.065A1.206,1.206,0,0,1,326,130.206Z" transform="translate(-285.758 -77.446)" fill="#fff"/>
    <path id="Path_1877" data-name="Path 1877" d="M99.215,196.141c4.358-.044,8.719,0,13.077-.021a1.662,1.662,0,0,1,1.31.371,1.205,1.205,0,0,1-.1,1.782,1.621,1.621,0,0,1-1.086.28c-4.329-.008-8.659,0-12.989-.006a1.242,1.242,0,0,1-1.3-.971A1.2,1.2,0,0,1,99.215,196.141Z" transform="translate(-86.189 -135.434)" fill="#fff"/>
    <path id="Path_1879" data-name="Path 1879" d="M98.862,242.674a2.454,2.454,0,0,1,.819-.1c2.549.01,5.1,0,7.648.007a1.265,1.265,0,0,1,1.083.526,1.2,1.2,0,0,1-.216,1.606,1.618,1.618,0,0,1-1.11.294c-2.549-.007-5.1,0-7.649,0a1.276,1.276,0,0,1-1.162-.615A1.216,1.216,0,0,1,98.862,242.674Z" transform="translate(-86.208 -176.247)" fill="#fff"/>
    <path id="Path_1880" data-name="Path 1880" d="M99.2,297c4.359-.047,8.722,0,13.083-.022a1.732,1.732,0,0,1,1.264.32,1.21,1.21,0,0,1,.062,1.732,1.528,1.528,0,0,1-1.2.38c-4.333-.007-8.665,0-13-.006a1.245,1.245,0,0,1-1.282-.943A1.2,1.2,0,0,1,99.2,297Z" transform="translate(-86.184 -224.046)" fill="#fff"/>
    <path id="Path_1881" data-name="Path 1881" d="M49.234,323.1a1.2,1.2,0,1,1-.846,1.93A1.205,1.205,0,0,1,49.234,323.1Z" transform="translate(-42.291 -246.994)" fill="#fff"/>
    <path id="Path_1883" data-name="Path 1883" d="M99.232,343.429c2.611-.04,5.225,0,7.836-.018a1.507,1.507,0,0,1,1.23.415,1.206,1.206,0,0,1-.132,1.731,1.635,1.635,0,0,1-1.1.286c-2.547-.009-5.094,0-7.641,0a1.239,1.239,0,0,1-1.309-1.01A1.208,1.208,0,0,1,99.232,343.429Z" transform="translate(-86.186 -264.845)" fill="#fff"/>
    <g id="_000000ff-2" data-name="#000000ff" transform="translate(41.88 63.586)">
      <path id="Path_1884" data-name="Path 1884" d="M113.607,0h.037a.543.543,0,0,1,.455.274.662.662,0,0,1,.068.344c0,.312,0,.624,0,.936a4.614,4.614,0,0,1,2.568.976.781.781,0,0,1,.268.29.731.731,0,0,1-.863,1,1.185,1.185,0,0,1-.323-.191,4.081,4.081,0,0,0-1.643-.671q0,1.527,0,3.055a6.691,6.691,0,0,1,2.334,1,2.457,2.457,0,0,1,.924,1.465,3.275,3.275,0,0,1-.237,2.023,2.784,2.784,0,0,1-.943,1.093,4.207,4.207,0,0,1-2.078.647c0,.334,0,.667,0,1a.534.534,0,0,1-.518.5H113.6a.541.541,0,0,1-.515-.508c-.008-.326,0-.652,0-.977a5.137,5.137,0,0,1-3.272-1.333.676.676,0,0,1-.163-.568.751.751,0,0,1,.7-.639.81.81,0,0,1,.525.226,4.508,4.508,0,0,0,2.205.942q0-1.736,0-3.472a8.528,8.528,0,0,1-1.993-.742,2.482,2.482,0,0,1-1.112-1.225,2.741,2.741,0,0,1,1.1-3.289,4.177,4.177,0,0,1,2.009-.646c0-.336,0-.673,0-1.009A.542.542,0,0,1,113.607,0m-1.374,3.123a1.421,1.421,0,0,0-.72.7,1.262,1.262,0,0,0-.05.92,1.2,1.2,0,0,0,.593.608,5.355,5.355,0,0,0,1.026.387q0-1.419,0-2.838a2.465,2.465,0,0,0-.849.223m1.943,4.63q0,1.579,0,3.159a2.118,2.118,0,0,0,1.4-.664,1.492,1.492,0,0,0,.318-1.193,1.208,1.208,0,0,0-.55-.808A3.977,3.977,0,0,0,114.176,7.753Z" transform="translate(-109.637 0)" fill="#fff"/>
    </g>
  </g>
</svg>
