<svg id="_000000ff" data-name="#000000ff" xmlns="http://www.w3.org/2000/svg" width="67.93" height="67.93" viewBox="0 0 67.93 67.93">
  <path id="Path_1909" data-name="Path 1909" d="M4.573,0H63.265a5.205,5.205,0,0,1,3.37,1.693,5.362,5.362,0,0,1,1.295,2.88V62.9a5.14,5.14,0,0,1-5.011,5.03H5.028a5.214,5.214,0,0,1-3.723-1.714A5.26,5.26,0,0,1,0,62.916V4.613A5.281,5.281,0,0,1,1.425,1.552,5.319,5.319,0,0,1,4.573,0M3.4,2.871a2.957,2.957,0,0,0-1.122,2.42c-.005,2.765,0,5.53,0,8.295q31.693,0,63.387,0,0-4.074,0-8.149A3.2,3.2,0,0,0,65,3.324a2.981,2.981,0,0,0-2.374-1.051q-28.6-.008-57.192,0a3.221,3.221,0,0,0-2.039.6M2.265,15.851q0,23.388,0,46.776a2.958,2.958,0,0,0,.772,2.137,2.939,2.939,0,0,0,2.269.9q28.731,0,57.462,0a2.847,2.847,0,0,0,2.878-2.573c.05-1.26.008-2.522.023-3.784q0-21.728,0-43.455Z" fill="#fff"/>
  <path id="Path_1910" data-name="Path 1910" d="M35.178,34.112c1.4-.04,2.811,0,4.216-.019a1.474,1.474,0,0,1,1.2.383A1.845,1.845,0,0,1,40.9,35.81c-.017,1.323.017,2.647-.016,3.97a1.158,1.158,0,0,1-1.233,1.109c-1.457,0-2.914.012-4.37,0a1.146,1.146,0,0,1-1.169-1.108c-.024-1.5-.013-3-.005-4.5a1.145,1.145,0,0,1,1.069-1.168m1.189,2.249c0,.756,0,1.511,0,2.266q1.134,0,2.266,0,0-1.132,0-2.266Z" transform="translate(-29.575 -29.569)" fill="#fff"/>
  <path id="Path_1911" data-name="Path 1911" d="M103.422,34.117c1.312-.046,2.627,0,3.94-.02a2.007,2.007,0,0,1,1.421.3,1.381,1.381,0,0,1,.389,1.141c-.012,1.409.013,2.817-.012,4.226a1.139,1.139,0,0,1-1.14,1.12c-1.367.027-2.733,0-4.1.013a1.581,1.581,0,0,1-1.179-.324,1.461,1.461,0,0,1-.366-1.179c.015-1.4-.016-2.8.016-4.2a1.127,1.127,0,0,1,1.031-1.079m1.211,2.259c.019.751.005,1.5.011,2.253h2.261c0-.756,0-1.511,0-2.266C106.149,36.369,105.391,36.349,104.634,36.377Z" transform="translate(-88.792 -29.572)" fill="#fff"/>
  <path id="Path_1912" data-name="Path 1912" d="M171.65,34.117c1.313-.058,2.631,0,3.947-.025a2.117,2.117,0,0,1,1.438.284,1.281,1.281,0,0,1,.4,1.018c0,1.378,0,2.757,0,4.134a1.3,1.3,0,0,1-.452,1.116,1.986,1.986,0,0,1-1.263.249c-1.321-.016-2.643.017-3.963-.016a1.158,1.158,0,0,1-1.114-1.231c0-1.458-.012-2.918,0-4.377a1.136,1.136,0,0,1,1-1.152m1.259,2.241q0,1.132,0,2.266,1.132,0,2.266,0V36.358Z" transform="translate(-148.002 -29.566)" fill="#fff"/>
  <path id="Path_1913" data-name="Path 1913" d="M43.262,136.653A1.774,1.774,0,0,1,44,136.52q27,.008,54.009.005a1.176,1.176,0,0,1,1.233,1.248q.012,7.763,0,15.53a1.28,1.28,0,0,1-.442,1.081,2.072,2.072,0,0,1-1.333.253q-26.8-.012-53.607-.007a1.164,1.164,0,0,1-1.222-1.2c-.015-5.174,0-10.35-.007-15.524a1.259,1.259,0,0,1,.633-1.258m1.633,2.133q0,6.792,0,13.585,26.043,0,52.083,0,0-6.792,0-13.585Q70.935,138.784,44.9,138.786Z" transform="translate(-36.971 -118.407)" fill="#fff"/>
  <path id="Path_1914" data-name="Path 1914" d="M137.625,179.176c8.92-.053,17.843,0,26.765-.025a1.654,1.654,0,0,1,1.332.372,1.132,1.132,0,0,1-.1,1.631,2.044,2.044,0,0,1-1.36.272q-13.2-.012-26.4-.005a1.162,1.162,0,0,1-1.2-.833A1.119,1.119,0,0,1,137.625,179.176Z" transform="translate(-118.485 -155.381)" fill="#fff"/>
  <path id="Path_1915" data-name="Path 1915" d="M112.113,213.327c11.971-.027,23.945,0,35.918-.013a1.408,1.408,0,0,1,1.156.385,1.123,1.123,0,0,1-.155,1.64,1.416,1.416,0,0,1-.882.243q-17.708,0-35.416,0c-.576.032-1.294-.015-1.589-.6A1.13,1.13,0,0,1,112.113,213.327Z" transform="translate(-96.276 -185.012)" fill="#fff"/>
  <path id="Path_1916" data-name="Path 1916" d="M43.742,290.12c5.912-.057,11.829,0,17.744-.027a1.8,1.8,0,0,1,1.2.268,1.127,1.127,0,0,1,.143,1.595,1.3,1.3,0,0,1-1.08.4q-8.888,0-17.777,0a1.154,1.154,0,0,1-1.214-.953A1.118,1.118,0,0,1,43.742,290.12Z" transform="translate(-37.07 -251.604)" fill="#fff"/>
  <path id="Path_1918" data-name="Path 1918" d="M43.743,324.253c8.254-.05,16.511-.007,24.766-.023a1.2,1.2,0,0,1,1.341.892,1.144,1.144,0,0,1-1.207,1.371q-12.279.012-24.558,0a1.223,1.223,0,0,1-1.276-.732A1.121,1.121,0,0,1,43.743,324.253Z" transform="translate(-37.061 -281.208)" fill="#fff"/>
  <path id="Path_1920" data-name="Path 1920" d="M43.871,358.387c8.166-.02,16.332,0,24.5-.011a1.508,1.508,0,0,1,1.186.346,1.129,1.129,0,0,1,0,1.576,1.38,1.38,0,0,1-1.049.346q-12.273-.008-24.546-.005a1.156,1.156,0,0,1-1.19-.857A1.13,1.13,0,0,1,43.871,358.387Z" transform="translate(-37.061 -310.828)" fill="#fff"/>
  <path id="Path_1921" data-name="Path 1921" d="M43.389,392.645a1.752,1.752,0,0,1,.738-.134q12.012,0,24.025,0a2.008,2.008,0,0,1,1.375.284,1.128,1.128,0,0,1,.076,1.631,1.343,1.343,0,0,1-1.047.353q-12.269,0-24.538,0a1.2,1.2,0,0,1-1.048-.5A1.126,1.126,0,0,1,43.389,392.645Z" transform="translate(-37.099 -340.434)" fill="#fff"/>
  <path id="Path_1922" data-name="Path 1922" d="M43.488,426.714a4.525,4.525,0,0,1,1.291-.088q11.941.006,23.882,0a1.159,1.159,0,0,1,1.241.983,1.147,1.147,0,0,1-1.229,1.275q-12.281.01-24.563,0a1.267,1.267,0,0,1-1.146-.5A1.126,1.126,0,0,1,43.488,426.714Z" transform="translate(-37.093 -370.021)" fill="#fff"/>
  <path id="Path_1923" data-name="Path 1923" d="M43.488,460.871a4.143,4.143,0,0,1,1.16-.082q12,.008,24.01.005a1.133,1.133,0,1,1,.015,2.257q-12.285.014-24.571,0a1.254,1.254,0,0,1-1.211-.6A1.125,1.125,0,0,1,43.488,460.871Z" transform="translate(-37.081 -399.652)" fill="#fff"/>
  <path id="Path_1869" data-name="Path 1869" d="M1.848,32.292a1.5,1.5,0,0,1,.957-.309H20.359a1.475,1.475,0,0,1,1.231.585,2.838,2.838,0,0,1,.379,1.047c.4,1.606.81,3.209,1.2,4.817v.141a3.778,3.778,0,0,1-.579,1.927,3.474,3.474,0,0,1-1.907,1.473,3.287,3.287,0,0,1-2.294-.146,3.542,3.542,0,0,1-1.375-1.109A3.488,3.488,0,0,1,15.3,41.957a3.279,3.279,0,0,1-2.311-.116,3.533,3.533,0,0,1-1.406-1.123A3.489,3.489,0,0,1,9.9,41.945a3.276,3.276,0,0,1-2.378-.118,3.538,3.538,0,0,1-1.374-1.109,3.489,3.489,0,0,1-1.712,1.238A3.275,3.275,0,0,1,1.8,41.676a3.67,3.67,0,0,1-1.8-3.1v-.137c.424-1.763.877-3.518,1.312-5.278A1.5,1.5,0,0,1,1.848,32.292Z" transform="translate(37.666 8.774)" fill="#fff"/>
  <path id="Path_1870" data-name="Path 1870" d="M33.71,270.016a4.713,4.713,0,0,0,2.989-.835,4.887,4.887,0,0,0,5.43,0,4.888,4.888,0,0,0,5.43,0,4.713,4.713,0,0,0,2.987.836,4.779,4.779,0,0,0,1.716-.435c0,2.533,0,5.067,0,7.6a1.515,1.515,0,0,1-.326,1,1.472,1.472,0,0,1-1.169.539q-2.872,0-5.744,0,0-2.9,0-5.792H39.233q0,2.9,0,5.792-2.783,0-5.567,0a1.832,1.832,0,0,1-.812-.13,1.464,1.464,0,0,1-.86-1.362q0-3.823,0-7.646A4.766,4.766,0,0,0,33.71,270.016Z" transform="translate(7.12 -217.691)" fill="#fff"/>
</svg>
