<svg xmlns="http://www.w3.org/2000/svg" width="75.279" height="58.82" viewBox="0 0 75.279 58.82">
  <g id="rate" transform="translate(0 -55.972)">
    <g id="_000000ff" data-name="#000000ff" transform="translate(0 55.972)">
      <path id="Path_1924" data-name="Path 1924" d="M1.788,57.038A5.573,5.573,0,0,1,5.3,55.976h63.5a8.7,8.7,0,0,1,3.555.419,4.615,4.615,0,0,1,2.919,3.8v50.246a4.558,4.558,0,0,1-2.805,3.88,7.654,7.654,0,0,1-3.371.466q-31.395,0-62.786,0a8.218,8.218,0,0,1-3.407-.422A4.571,4.571,0,0,1,0,110.446V60.221a4.49,4.49,0,0,1,1.788-3.183M2.944,60.53c-.007,3.383,0,6.766,0,10.149q27.645,0,55.291,0a2.774,2.774,0,0,1,1.75.312,1.62,1.62,0,0,1,.6,1.159,1.54,1.54,0,0,1-1.616,1.469q-28.011.011-56.024,0,0,18.307,0,36.615a1.452,1.452,0,0,0,.785,1.251,4.243,4.243,0,0,0,2.3.362q31.975,0,63.952,0A2.474,2.474,0,0,0,72.089,111c.326-.369.235-.9.251-1.35q-.007-18.012,0-36.027a9.364,9.364,0,0,1-1.906-.085,1.442,1.442,0,0,1,0-2.772,9.445,9.445,0,0,1,1.9-.084c0-3.383,0-6.766,0-10.149a1.342,1.342,0,0,0-.535-1.075,3.239,3.239,0,0,0-2.261-.54q-32.2.009-64.393,0C4.192,58.883,2.952,59.439,2.944,60.53Z" transform="translate(0 -55.972)" fill="#fff"/>
      <path id="Path_1925" data-name="Path 1925" d="M182.461,106.322c12.233-.047,24.469-.007,36.7-.021a8.816,8.816,0,0,1,2.047.106,1.459,1.459,0,0,1,.709,2.161,1.592,1.592,0,0,1-1.429.675q-18.89,0-37.782,0a1.509,1.509,0,0,1-1.579-1.2A1.453,1.453,0,0,1,182.461,106.322Z" transform="translate(-154.471 -98.896)" fill="#fff"/>
      <path id="Path_1926" data-name="Path 1926" d="M51.205,106.536a1.464,1.464,0,1,1-.862,1.419A1.483,1.483,0,0,1,51.205,106.536Z" transform="translate(-42.939 -98.997)" fill="#fff"/>
      <path id="Path_1927" data-name="Path 1927" d="M91.2,106.488a1.464,1.464,0,1,1-.86,1.414A1.474,1.474,0,0,1,91.2,106.488Z" transform="translate(-77.059 -98.947)" fill="#fff"/>
      <path id="Path_1928" data-name="Path 1928" d="M131.209,106.536a1.464,1.464,0,1,1-.859,1.426A1.482,1.482,0,0,1,131.209,106.536Z" transform="translate(-111.182 -98.995)" fill="#fff"/>
      <path id="Path_1929" data-name="Path 1929" d="M432.21,157.642a1.489,1.489,0,1,1,1.432,1.5A1.515,1.515,0,0,1,432.21,157.642Z" transform="translate(-368.662 -141.469)" fill="#fff"/>
      <path id="Path_1930" data-name="Path 1930" d="M71.853,216.1a7.439,7.439,0,0,1,6.875,2.325,6.932,6.932,0,0,1,1.535,2.723,7.216,7.216,0,0,1-2.1,7.55,7.343,7.343,0,0,1-7.143,1.532,7.27,7.27,0,0,1-2.357-12.661,7.5,7.5,0,0,1,3.185-1.469m.434,2.92a4.347,4.347,0,0,0-1.82,7.668,4.516,4.516,0,0,0,6.14-.572,4.367,4.367,0,0,0-.166-5.853A4.5,4.5,0,0,0,72.287,219.015Z" transform="translate(-56.182 -192.444)" fill="#fff"/>
      <path id="Path_1931" data-name="Path 1931" d="M211.854,216.095a7.415,7.415,0,0,1,7.078,2.569,7.2,7.2,0,0,1,.841,7.95,7.367,7.367,0,0,1-13.069,0,7.816,7.816,0,0,1-.673-1.828,7.286,7.286,0,0,1,2.638-7.219,7.5,7.5,0,0,1,3.186-1.469m.432,2.92a4.347,4.347,0,0,0-1.723,7.74,4.516,4.516,0,0,0,6.039-.637,4.367,4.367,0,0,0-.226-5.928A4.51,4.51,0,0,0,212.286,219.015Z" transform="translate(-175.6 -192.444)" fill="#fff"/>
      <path id="Path_1932" data-name="Path 1932" d="M351.909,216.11a7.435,7.435,0,0,1,6.281,1.742,7.039,7.039,0,0,1,2.128,3.317,7.166,7.166,0,0,1-1.511,6.944,7.344,7.344,0,0,1-7.6,2.164,7.269,7.269,0,0,1-3.674-11.515,7.416,7.416,0,0,1,4.381-2.652m.431,2.92a4.346,4.346,0,0,0-1.82,7.669,4.517,4.517,0,0,0,6.137-.57,4.368,4.368,0,0,0-.238-5.931A4.509,4.509,0,0,0,352.34,219.03Z" transform="translate(-295.066 -192.459)" fill="#fff"/>
      <path id="Path_1933" data-name="Path 1933" d="M66.6,336.073a4.629,4.629,0,0,1,1.266-.093c3.58.006,7.162,0,10.742,0a1.5,1.5,0,0,1,1.573,1.245,1.465,1.465,0,0,1-1.417,1.679c-3.827.029-7.657.006-11.486.013a1.582,1.582,0,0,1-1.472-.734A1.462,1.462,0,0,1,66.6,336.073Z" transform="translate(-55.958 -294.81)" fill="#fff"/>
      <path id="Path_1934" data-name="Path 1934" d="M206.9,336.086a4.781,4.781,0,0,1,1.4-.107q5.3,0,10.589,0a1.592,1.592,0,0,1,1.348.579,1.454,1.454,0,0,1-.312,2.076,2.16,2.16,0,0,1-1.326.287c-3.674-.007-7.349,0-11.023,0a1.553,1.553,0,0,1-1.45-.772A1.467,1.467,0,0,1,206.9,336.086Z" transform="translate(-175.67 -294.808)" fill="#fff"/>
      <path id="Path_1935" data-name="Path 1935" d="M346.9,336.083a4.823,4.823,0,0,1,1.4-.1q5.3,0,10.6,0a1.52,1.52,0,0,1,1.611,1.163,1.471,1.471,0,0,1-1.456,1.767c-3.827.021-7.656,0-11.483.007a1.507,1.507,0,0,1-1.579-1.145A1.453,1.453,0,0,1,346.9,336.083Z" transform="translate(-295.079 -294.807)" fill="#fff"/>
      <path id="Path_1936" data-name="Path 1936" d="M66.6,376.066a5.362,5.362,0,0,1,1.4-.088c3.532,0,7.063,0,10.595,0a1.553,1.553,0,0,1,1.3.59,1.462,1.462,0,0,1-.282,2.038,2.03,2.03,0,0,1-1.31.313c-3.733-.012-7.466.01-11.2-.012a1.475,1.475,0,0,1-1.5-1.6A1.455,1.455,0,0,1,66.6,376.066Z" transform="translate(-55.953 -328.925)" fill="#fff"/>
      <path id="Path_1937" data-name="Path 1937" d="M206.906,376.1a2.753,2.753,0,0,1,.82-.106c3.724,0,7.45,0,11.176,0a1.568,1.568,0,0,1,1.4.665,1.452,1.452,0,0,1-.369,1.988,1.933,1.933,0,0,1-1.176.29c-3.726-.007-7.451,0-11.177,0a1.549,1.549,0,0,1-1.448-.773A1.463,1.463,0,0,1,206.906,376.1Z" transform="translate(-175.671 -328.938)" fill="#fff"/>
      <path id="Path_1938" data-name="Path 1938" d="M346.912,376.093a2.727,2.727,0,0,1,.809-.1c3.727,0,7.454,0,11.182,0a1.569,1.569,0,0,1,1.4.666,1.454,1.454,0,0,1-.365,1.983,1.918,1.918,0,0,1-1.185.291c-3.724-.006-7.449,0-11.173,0a1.554,1.554,0,0,1-1.445-.765A1.464,1.464,0,0,1,346.912,376.093Z" transform="translate(-295.086 -328.938)" fill="#fff"/>
    </g>
  </g>
</svg>
