<svg id="_000000ff" data-name="#000000ff" xmlns="http://www.w3.org/2000/svg" width="67.395" height="67.93" viewBox="0 0 67.395 67.93">
  <path id="Path_1885" data-name="Path 1885" d="M3.255,0H64.12a3.462,3.462,0,0,1,2.4,1.126,3.56,3.56,0,0,1,.877,2.156V64.627a3.415,3.415,0,0,1-3.258,3.3H3.275A3.451,3.451,0,0,1,.817,66.735,3.577,3.577,0,0,1,0,64.646V3.3A3.553,3.553,0,0,1,.879,1.124,3.459,3.459,0,0,1,3.255,0M2.583,2.6a1.464,1.464,0,0,0-.338,1.1c0,1.784,0,3.569,0,5.355h62.9c0-1.783,0-3.565,0-5.348a1.617,1.617,0,0,0-.224-.967,1.237,1.237,0,0,0-1.079-.479q-30.083-.006-60.164,0a1.444,1.444,0,0,0-1.1.341m-.336,8.719q-.006,26.184,0,52.369a2.414,2.414,0,0,0,.28,1.568,1.393,1.393,0,0,0,1.158.409q30.085-.008,60.169,0a1.2,1.2,0,0,0,1.3-1.3q0-26.518,0-53.038Q33.7,11.324,2.247,11.322Z" fill="#fff"/>
  <path id="Path_1886" data-name="Path 1886" d="M43.659,34.11c.684-.05,1.373-.016,2.059-.022a1.109,1.109,0,0,1,1.081.6,1.031,1.031,0,0,1-.707,1.443c-.655.086-1.319.021-1.978.043a1.246,1.246,0,0,1-1.22-.512A1.035,1.035,0,0,1,43.659,34.11Z" transform="translate(-37.51 -29.911)" fill="#fff"/>
  <path id="Path_1887" data-name="Path 1887" d="M128.949,34.121a9.924,9.924,0,0,1,1.192-.028q14.019,0,28.038,0a1.158,1.158,0,0,1,1.006.444,1.032,1.032,0,0,1-.225,1.427,1.268,1.268,0,0,1-.794.215q-14.441,0-28.884,0a1.123,1.123,0,0,1-1.124-.616A1.036,1.036,0,0,1,128.949,34.121Z" transform="translate(-110.026 -29.916)" fill="#fff"/>
  <path id="Path_1888" data-name="Path 1888" d="M436.252,34.111c.645-.037,1.293-.009,1.94-.016a1.174,1.174,0,0,1,1.087.493,1.034,1.034,0,0,1-.63,1.552,16.117,16.117,0,0,1-1.82.047c-.487.017-1.082,0-1.367-.468A1.039,1.039,0,0,1,436.252,34.111Z" transform="translate(-377.278 -29.919)" fill="#fff"/>
  <path id="Path_1889" data-name="Path 1889" d="M36,102.42a12.387,12.387,0,0,1,1.4-.035q26.683,0,53.365,0a2.344,2.344,0,0,1,2.085,1.087,3.226,3.226,0,0,1,.287,1.792q0,8.388,0,16.777a2.222,2.222,0,0,1-2.37,2.274q-27.152,0-54.3,0a2.353,2.353,0,0,1-2.029-1,2.444,2.444,0,0,1-.343-1.52c.008-5.756,0-11.513.005-17.269a2.157,2.157,0,0,1,1.9-2.1m.366,2.054q0,8.877,0,17.755,6.811,0,13.623,0,0-8.877,0-17.755-6.811,0-13.623,0m15.894,0v17.752q19.3.005,38.6,0,0-8.877,0-17.755Q71.558,104.475,52.256,104.475Z" transform="translate(-29.913 -88.231)" fill="#fff"/>
  <path id="Path_1891" data-name="Path 1891" d="M188.711,145.05c1.009-.058,2.023-.01,3.035-.024a1.147,1.147,0,0,1,1.174.641,1.04,1.04,0,0,1-.93,1.436c-1.022.026-2.048.011-3.07.007a1.061,1.061,0,0,1-1.072-.744A1.03,1.03,0,0,1,188.711,145.05Z" transform="translate(-162.923 -125.729)" fill="#fff"/>
  <path id="Path_1892" data-name="Path 1892" d="M188.484,187.778a4.156,4.156,0,0,1,1.195-.084q6.791,0,13.581,0a1.334,1.334,0,0,1,.885.252,1.044,1.044,0,0,1,.152,1.433,1.207,1.207,0,0,1-1.023.409q-7.1,0-14.2,0A1.177,1.177,0,0,1,188,189.31,1.041,1.041,0,0,1,188.484,187.778Z" transform="translate(-162.475 -162.722)" fill="#fff"/>
  <path id="Path_1893" data-name="Path 1893" d="M342.067,187.793a2.632,2.632,0,0,1,.928-.1c1.548.012,3.1-.007,4.647.009a1.057,1.057,0,0,1,1.084.879,1.039,1.039,0,0,1-.991,1.2c-1.623.031-3.246,0-4.869.015a1.366,1.366,0,0,1-1.179-.4A1.044,1.044,0,0,1,342.067,187.793Z" transform="translate(-296.097 -162.721)" fill="#fff"/>
  <path id="Path_1894" data-name="Path 1894" d="M418.934,187.679a3.618,3.618,0,0,1,1.931.039,1.04,1.04,0,0,1-.244,1.913,3.528,3.528,0,0,1-1.81-.11A1.042,1.042,0,0,1,418.934,187.679Z" transform="translate(-362.385 -162.614)" fill="#fff"/>
  <path id="Path_1895" data-name="Path 1895" d="M188.5,221.928a2.493,2.493,0,0,1,.706-.078c2.974.009,5.95,0,8.924.006a1.071,1.071,0,0,1,1.151.878,1.043,1.043,0,0,1-1.023,1.2c-3.064.023-6.127,0-9.189.01a1.165,1.165,0,0,1-1.07-.483A1.04,1.04,0,0,1,188.5,221.928Z" transform="translate(-162.718 -192.337)" fill="#fff"/>
  <path id="Path_1896" data-name="Path 1896" d="M299.452,221.923a3.458,3.458,0,0,1,.934-.073c2.245.015,4.491-.015,6.735.015a1.037,1.037,0,0,1,1,1.213,1.07,1.07,0,0,1-1.117.86c-2.33.01-4.662,0-6.994,0a1.174,1.174,0,0,1-1.08-.482A1.04,1.04,0,0,1,299.452,221.923Z" transform="translate(-258.954 -192.337)" fill="#fff"/>
  <path id="Path_1897" data-name="Path 1897" d="M393.337,221.869c1.159-.153,2.341-.027,3.509-.069.606.032,1.383-.154,1.811.4a1.038,1.038,0,0,1-.736,1.671c-1.338.042-2.678,0-4.016.018a1.188,1.188,0,0,1-1.093-.479A1.038,1.038,0,0,1,393.337,221.869Z" transform="translate(-339.856 -192.286)" fill="#fff"/>
  <path id="Path_1899" data-name="Path 1899" d="M35.862,298.713a4.157,4.157,0,0,1,.77-.066q27.074.005,54.15,0a2.219,2.219,0,0,1,2.371,2.12q.01,8.816,0,17.631a2.1,2.1,0,0,1-1.217,1.938,4.3,4.3,0,0,1-1.962.246q-26.747,0-53.5,0a2.221,2.221,0,0,1-2.359-2.062q-.018-8.877,0-17.755a2.142,2.142,0,0,1,1.743-2.053m.524,2.024v17.757q6.813,0,13.624,0,0-8.88,0-17.758-6.811,0-13.623,0m15.9,0q0,8.879,0,17.757,19.3,0,38.6,0V300.737Q71.586,300.735,52.282,300.737Z" transform="translate(-29.939 -256.83)" fill="#fff"/>
  <path id="Path_1900" data-name="Path 1900" d="M71.061,333.548a2.079,2.079,0,0,1,2.459-.3,2.207,2.207,0,0,1,1.057,1.581q1.013,5.135,2.037,10.27a1.1,1.1,0,0,1-.529,1.311,1.033,1.033,0,0,1-1.46-.665c-.256-1.124-.449-2.262-.687-3.39h-2.9c-.224,1.1-.422,2.2-.654,3.3a1.038,1.038,0,1,1-2.032-.415c.662-3.428,1.361-6.849,2.029-10.276a2.494,2.494,0,0,1,.679-1.409m.377,6.706c.7.02,1.392.006,2.088.01q-.521-2.644-1.046-5.286C72.126,336.736,71.8,338.5,71.438,340.254Z" transform="translate(-59.96 -286.957)" fill="#fff"/>
  <path id="Path_1901" data-name="Path 1901" d="M188.843,341.324c1.051-.013,2.1-.02,3.155,0a1.033,1.033,0,0,1,.967,1.3,1.069,1.069,0,0,1-1.1.77c-1.018,0-2.039.02-3.056-.01a1.034,1.034,0,0,1,.029-2.067Z" transform="translate(-162.925 -295.907)" fill="#fff"/>
  <path id="Path_1902" data-name="Path 1902" d="M188.5,384.055a2.83,2.83,0,0,1,.813-.075c2.618.011,5.235-.01,7.852.01a1.038,1.038,0,1,1-.023,2.075q-4.1.018-8.2,0a1.062,1.062,0,0,1-1.075-.734A1.037,1.037,0,0,1,188.5,384.055Z" transform="translate(-162.744 -332.899)" fill="#fff"/>
  <path id="Path_1903" data-name="Path 1903" d="M290.874,384.068a2.9,2.9,0,0,1,.924-.088c2.613.015,5.226-.016,7.838.015a1.041,1.041,0,0,1,.936,1.43,1.09,1.09,0,0,1-1.067.643q-4.041.011-8.082,0a1.107,1.107,0,0,1-1.062-.545A1.04,1.04,0,0,1,290.874,384.068Z" transform="translate(-251.493 -332.899)" fill="#fff"/>
  <path id="Path_1904" data-name="Path 1904" d="M393.326,384.027a6.733,6.733,0,0,1,1.422-.065c1.061.015,2.125-.029,3.185.02a1.032,1.032,0,0,1,.884,1.324,1.079,1.079,0,0,1-1.124.742c-1.352,0-2.7.018-4.056-.01a1.032,1.032,0,0,1-.311-2.011Z" transform="translate(-339.837 -332.879)" fill="#fff"/>
  <path id="Path_1905" data-name="Path 1905" d="M188.72,418.117c3.824-.055,7.652-.011,11.478-.022a1.076,1.076,0,0,1,1.162.969,1.064,1.064,0,0,1-1.168,1.115q-5.633,0-11.265,0a1.06,1.06,0,0,1-1.1-.874A1.029,1.029,0,0,1,188.72,418.117Z" transform="translate(-162.606 -361.653)" fill="#fff"/>
  <path id="Path_1906" data-name="Path 1906" d="M316.723,418.051c.639-.011,1.43-.185,1.93.323a1.041,1.041,0,0,1-.423,1.673,5.145,5.145,0,0,1-1.539.04,1.028,1.028,0,0,1,.032-2.037Z" transform="translate(-274.088 -361.588)" fill="#fff"/>
  <path id="Path_1907" data-name="Path 1907" d="M359.419,418.113c1.379-.042,2.761-.01,4.142-.016a1.079,1.079,0,0,1,1.133.846,1.038,1.038,0,0,1-1.021,1.231c-1.345.022-2.69.006-4.035.007a1.1,1.1,0,0,1-1.087-.644A1.039,1.039,0,0,1,359.419,418.113Z" transform="translate(-310.917 -361.656)" fill="#fff"/>
  <path id="Path_1908" data-name="Path 1908" d="M427.385,418.412a1.03,1.03,0,1,1-.1,1.762A1.043,1.043,0,0,1,427.385,418.412Z" transform="translate(-369.868 -361.836)" fill="#fff"/>
  <path id="Path_1864" data-name="Path 1864" d="M21.321,99.522a4.664,4.664,0,0,0,2.628,4.2l-2.224-6.094A4.645,4.645,0,0,0,21.321,99.522Z" transform="translate(-13.039 -74.399)" fill="#fff"/>
  <path id="Path_1865" data-name="Path 1865" d="M49.529,25.748a2.455,2.455,0,0,0-.385-1.286,2.183,2.183,0,0,1-.458-1.093.807.807,0,0,1,.783-.828c.021,0,.04,0,.06,0a4.662,4.662,0,0,0-7.044.878c.109,0,.212.006.3.006.488,0,1.243-.059,1.243-.059a.193.193,0,0,1,.03.384s-.253.03-.534.044l1.7,5.05,1.02-3.06-.726-1.99c-.251-.015-.489-.044-.489-.044a.193.193,0,0,1,.029-.384s.77.059,1.228.059c.488,0,1.243-.059,1.243-.059a.193.193,0,0,1,.03.384s-.253.03-.534.044l1.685,5.012.465-1.554A5.633,5.633,0,0,0,49.529,25.748Z" transform="translate(-33.438 -0.86)" fill="#fff"/>
  <path id="Path_1866" data-name="Path 1866" d="M115.046,161.247l-1.4,4.065a4.665,4.665,0,0,0,2.866-.074.41.41,0,0,1-.033-.064Z" transform="translate(-102.021 -135.716)" fill="#fff"/>
  <path id="Path_1867" data-name="Path 1867" d="M216.429,88.256a3.578,3.578,0,0,1,.031.479,4.4,4.4,0,0,1-.355,1.67l-1.424,4.118a4.664,4.664,0,0,0,1.747-6.267Z" transform="translate(-199.394 -65.37)" fill="#fff"/>
  <path id="Path_1868" data-name="Path 1868" d="M5.435,0a5.435,5.435,0,1,0,5.436,5.435A5.441,5.441,0,0,0,5.435,0Zm0,10.621a5.186,5.186,0,1,1,5.186-5.186,5.192,5.192,0,0,1-5.186,5.186Z" transform="translate(7.508 19.688)" fill="#fff"/>
</svg>
